<?xml version="1.0" encoding="utf-8"?>
<svg version="1.1" xmlns:xlink="http://www.w3.org/1999/xlink" width="13px" height="13px" viewBox="809 1304  13 13" xmlns="http://www.w3.org/2000/svg">
  <path d="M 815.5 1304  C 819.14 1304  822 1306.86  822 1310.5  C 822 1314.14  819.14 1317  815.5 1317  C 811.86 1317  809 1314.14  809 1310.5  C 809 1306.86  811.86 1304  815.5 1304  Z " fill-rule="nonzero" fill="#ffffff" stroke="none" />
  <path d="M 815.5 1304.5  C 818.86 1304.5  821.5 1307.14  821.5 1310.5  C 821.5 1313.86  818.86 1316.5  815.5 1316.5  C 812.14 1316.5  809.5 1313.86  809.5 1310.5  C 809.5 1307.14  812.14 1304.5  815.5 1304.5  Z " stroke-width="1" stroke="#797979" fill="none" />
  <path d="M 815.5 1313.75  C 813.68 1313.75  812.25 1312.32  812.25 1310.5  C 812.25 1308.68  813.68 1307.25  815.5 1307.25  C 817.32 1307.25  818.75 1308.68  818.75 1310.5  C 818.75 1312.32  817.32 1313.75  815.5 1313.75  " fill-rule="nonzero" fill="#797979" stroke="none" />
</svg>