<?xml version="1.0" encoding="utf-8"?>
<svg version="1.1" xmlns:xlink="http://www.w3.org/1999/xlink" width="13px" height="13px" viewBox="491 1304  13 13" xmlns="http://www.w3.org/2000/svg">
  <path d="M 497.5 1304  C 501.14 1304  504 1306.86  504 1310.5  C 504 1314.14  501.14 1317  497.5 1317  C 493.86 1317  491 1314.14  491 1310.5  C 491 1306.86  493.86 1304  497.5 1304  Z " fill-rule="nonzero" fill="#f0f0f0" stroke="none" />
  <path d="M 497.5 1304.5  C 500.86 1304.5  503.5 1307.14  503.5 1310.5  C 503.5 1313.86  500.86 1316.5  497.5 1316.5  C 494.14 1316.5  491.5 1313.86  491.5 1310.5  C 491.5 1307.14  494.14 1304.5  497.5 1304.5  Z " stroke-width="1" stroke="#797979" fill="none" />
  <path d="M 497.5 1313.75  C 495.68 1313.75  494.25 1312.32  494.25 1310.5  C 494.25 1308.68  495.68 1307.25  497.5 1307.25  C 499.32 1307.25  500.75 1308.68  500.75 1310.5  C 500.75 1312.32  499.32 1313.75  497.5 1313.75  " fill-rule="nonzero" fill="#797979" stroke="none" />
</svg>