<?xml version="1.0" encoding="utf-8"?>
<svg version="1.1" xmlns:xlink="http://www.w3.org/1999/xlink" width="13px" height="13px" viewBox="650 1304  13 13" xmlns="http://www.w3.org/2000/svg">
  <path d="M 656.5 1304  C 660.14 1304  663 1306.86  663 1310.5  C 663 1314.14  660.14 1317  656.5 1317  C 652.86 1317  650 1314.14  650 1310.5  C 650 1306.86  652.86 1304  656.5 1304  Z " fill-rule="nonzero" fill="#f0f0f0" stroke="none" />
  <path d="M 656.5 1304.5  C 659.86 1304.5  662.5 1307.14  662.5 1310.5  C 662.5 1313.86  659.86 1316.5  656.5 1316.5  C 653.14 1316.5  650.5 1313.86  650.5 1310.5  C 650.5 1307.14  653.14 1304.5  656.5 1304.5  Z " stroke-width="1" stroke="#797979" fill="none" />
  <path d="M 656.5 1313.75  C 654.68 1313.75  653.25 1312.32  653.25 1310.5  C 653.25 1308.68  654.68 1307.25  656.5 1307.25  C 658.32 1307.25  659.75 1308.68  659.75 1310.5  C 659.75 1312.32  658.32 1313.75  656.5 1313.75  " fill-rule="nonzero" fill="#797979" stroke="none" />
</svg>